<?xml version="1.0" encoding="UTF-8"?>
<!DOCTYPE svg PUBLIC "-//W3C//DTD SVG 1.1//EN" "http://www.w3.org/Graphics/SVG/1.1/DTD/svg11.dtd">
<svg version="1.2" width="100mm" height="100mm" viewBox="0 0 10000 10000" preserveAspectRatio="xMidYMid" fill-rule="evenodd" stroke-width="28.222" stroke-linejoin="round" xmlns="http://www.w3.org/2000/svg" xmlns:ooo="http://xml.openoffice.org/svg/export" xmlns:xlink="http://www.w3.org/1999/xlink" xmlns:presentation="http://sun.com/xmlns/staroffice/presentation" xmlns:smil="http://www.w3.org/2001/SMIL20/" xmlns:anim="urn:oasis:names:tc:opendocument:xmlns:animation:1.0" xml:space="preserve">
 <defs class="ClipPathGroup">
  <clipPath id="presentation_clip_path" clipPathUnits="userSpaceOnUse">
   <rect x="0" y="0" width="10000" height="10000"/>
  </clipPath>
  <clipPath id="presentation_clip_path_shrink" clipPathUnits="userSpaceOnUse">
   <rect x="10" y="10" width="9980" height="9980"/>
  </clipPath>
 </defs>
 <defs class="TextShapeIndex">
  <g ooo:slide="id1" ooo:id-list="id3 id4 id5 id6 id7 id8"/>
 </defs>
 <defs class="EmbeddedBulletChars">
  <g id="bullet-char-template-57356" transform="scale(0.00048828125,-0.00048828125)">
   <path d="M 580,1141 L 1163,571 580,0 -4,571 580,1141 Z"/>
  </g>
  <g id="bullet-char-template-57354" transform="scale(0.00048828125,-0.00048828125)">
   <path d="M 8,1128 L 1137,1128 1137,0 8,0 8,1128 Z"/>
  </g>
  <g id="bullet-char-template-10146" transform="scale(0.00048828125,-0.00048828125)">
   <path d="M 174,0 L 602,739 174,1481 1456,739 174,0 Z M 1358,739 L 309,1346 659,739 1358,739 Z"/>
  </g>
  <g id="bullet-char-template-10132" transform="scale(0.00048828125,-0.00048828125)">
   <path d="M 2015,739 L 1276,0 717,0 1260,543 174,543 174,936 1260,936 717,1481 1274,1481 2015,739 Z"/>
  </g>
  <g id="bullet-char-template-10007" transform="scale(0.00048828125,-0.00048828125)">
   <path d="M 0,-2 C -7,14 -16,27 -25,37 L 356,567 C 262,823 215,952 215,954 215,979 228,992 255,992 264,992 276,990 289,987 310,991 331,999 354,1012 L 381,999 492,748 772,1049 836,1024 860,1049 C 881,1039 901,1025 922,1006 886,937 835,863 770,784 769,783 710,716 594,584 L 774,223 C 774,196 753,168 711,139 L 727,119 C 717,90 699,76 672,76 641,76 570,178 457,381 L 164,-76 C 142,-110 111,-127 72,-127 30,-127 9,-110 8,-76 1,-67 -2,-52 -2,-32 -2,-23 -1,-13 0,-2 Z"/>
  </g>
  <g id="bullet-char-template-10004" transform="scale(0.00048828125,-0.00048828125)">
   <path d="M 285,-33 C 182,-33 111,30 74,156 52,228 41,333 41,471 41,549 55,616 82,672 116,743 169,778 240,778 293,778 328,747 346,684 L 369,508 C 377,444 397,411 428,410 L 1163,1116 C 1174,1127 1196,1133 1229,1133 1271,1133 1292,1118 1292,1087 L 1292,965 C 1292,929 1282,901 1262,881 L 442,47 C 390,-6 338,-33 285,-33 Z"/>
  </g>
  <g id="bullet-char-template-9679" transform="scale(0.00048828125,-0.00048828125)">
   <path d="M 813,0 C 632,0 489,54 383,161 276,268 223,411 223,592 223,773 276,916 383,1023 489,1130 632,1184 813,1184 992,1184 1136,1130 1245,1023 1353,916 1407,772 1407,592 1407,412 1353,268 1245,161 1136,54 992,0 813,0 Z"/>
  </g>
  <g id="bullet-char-template-8226" transform="scale(0.00048828125,-0.00048828125)">
   <path d="M 346,457 C 273,457 209,483 155,535 101,586 74,649 74,723 74,796 101,859 155,911 209,963 273,989 346,989 419,989 480,963 531,910 582,859 608,796 608,723 608,648 583,586 532,535 482,483 420,457 346,457 Z"/>
  </g>
  <g id="bullet-char-template-8211" transform="scale(0.00048828125,-0.00048828125)">
   <path d="M -4,459 L 1135,459 1135,606 -4,606 -4,459 Z"/>
  </g>
  <g id="bullet-char-template-61548" transform="scale(0.00048828125,-0.00048828125)">
   <path d="M 173,740 C 173,903 231,1043 346,1159 462,1274 601,1332 765,1332 928,1332 1067,1274 1183,1159 1299,1043 1357,903 1357,740 1357,577 1299,437 1183,322 1067,206 928,148 765,148 601,148 462,206 346,322 231,437 173,577 173,740 Z"/>
  </g>
 </defs>
 <g>
  <g id="id2" class="Master_Slide">
   <g id="bg-id2" class="Background"/>
   <g id="bo-id2" class="BackgroundObjects"/>
  </g>
 </g>
 <g class="SlideGroup">
  <g>
   <g id="container-id1">
    <g id="id1" class="Slide" clip-path="url(#presentation_clip_path)">
     <g class="Page">
      <g class="Group">
       <g class="com.sun.star.drawing.EllipseShape">
        <g id="id3">
         <rect class="BoundingBox" stroke="none" fill="none" x="4737" y="2353" width="4466" height="4091"/>
         <path fill="none" stroke="rgb(191,129,158)" stroke-width="564" stroke-linejoin="round" stroke-linecap="round" d="M 8186,2635 C 8279,2713 8365,2798 8443,2891 8673,3165 8827,3492 8889,3839 8951,4187 8919,4543 8796,4872 8673,5201 8463,5491 8188,5713 7913,5934 7582,6080 7229,6135 6876,6191 6512,6153 6175,6027 5838,5901 5539,5691 5309,5417 5193,5279 5095,5127 5019,4964"/>
        </g>
       </g>
       <g class="com.sun.star.drawing.EllipseShape">
        <g id="id4">
         <rect class="BoundingBox" stroke="none" fill="none" x="4107" y="4698" width="4432" height="4102"/>
         <path fill="none" stroke="rgb(191,129,158)" stroke-width="564" stroke-linejoin="round" stroke-linecap="round" d="M 8256,7202 C 8213,7315 8161,7425 8099,7529 7917,7836 7659,8090 7351,8263 7043,8436 6696,8523 6345,8516 5994,8508 5651,8406 5351,8219 5051,8033 4805,7769 4636,7453 4467,7138 4382,6782 4390,6423 4398,6063 4498,5711 4681,5404 4773,5248 4884,5106 5013,4981"/>
        </g>
       </g>
       <g class="com.sun.star.drawing.EllipseShape">
        <g id="id5">
         <rect class="BoundingBox" stroke="none" fill="none" x="1495" y="4367" width="3811" height="4539"/>
         <path fill="none" stroke="rgb(191,129,158)" stroke-width="564" stroke-linejoin="round" stroke-linecap="round" d="M 3459,8623 C 3339,8602 3222,8572 3108,8531 2771,8410 2473,8205 2245,7936 2016,7666 1865,7342 1806,6996 1746,6650 1782,6294 1908,5964 2034,5634 2247,5342 2524,5116 2802,4891 3135,4740 3489,4679 3844,4619 4208,4650 4545,4771 4715,4832 4876,4914 5023,5017"/>
        </g>
       </g>
       <g class="com.sun.star.drawing.EllipseShape">
        <g id="id6">
         <rect class="BoundingBox" stroke="none" fill="none" x="3729" y="670" width="3490" height="4618"/>
         <path fill="none" stroke="rgb(191,129,158)" stroke-width="564" stroke-linejoin="round" stroke-linecap="round" d="M 4012,1187 C 4119,1131 4231,1084 4347,1048 4688,940 5049,924 5394,1000 5739,1076 6055,1242 6312,1482 6568,1722 6756,2027 6855,2366 6954,2705 6962,3066 6877,3414 6793,3761 6619,4083 6373,4345 6127,4608 5818,4803 5477,4911 5305,4966 5127,4997 4948,5005"/>
        </g>
       </g>
       <g class="com.sun.star.drawing.EllipseShape">
        <g id="id7">
         <rect class="BoundingBox" stroke="none" fill="none" x="680" y="2149" width="4587" height="3250"/>
         <path fill="none" stroke="rgb(191,129,158)" stroke-width="564" stroke-linejoin="round" stroke-linecap="round" d="M 982,4718 C 965,4598 959,4477 963,4356 976,3999 1081,3653 1269,3354 1456,3054 1719,2811 2031,2650 2343,2489 2693,2415 3045,2435 3398,2455 3741,2569 4040,2765 4339,2961 4584,3233 4749,3552 4915,3872 4995,4228 4982,4586 4976,4766 4946,4944 4893,5116"/>
        </g>
       </g>
      </g>
      <g class="com.sun.star.drawing.CustomShape">
       <g id="id8">
        <rect class="BoundingBox" stroke="none" fill="none" x="2999" y="2999" width="4003" height="4003"/>
        <path fill="rgb(161,70,126)" stroke="none" d="M 3000,5000 L 3812,5289 3812,4711 3000,5000 Z"/>
        <path fill="none" stroke="rgb(191,129,158)" d="M 3000,5000 L 3812,5289 3812,4711 3000,5000 Z"/>
        <path fill="rgb(161,70,126)" stroke="none" d="M 3585,6415 L 4364,6044 3956,5636 3585,6415 Z"/>
        <path fill="none" stroke="rgb(191,129,158)" d="M 3585,6415 L 4364,6044 3956,5636 3585,6415 Z"/>
        <path fill="rgb(161,70,126)" stroke="none" d="M 5000,7000 L 5289,6188 4711,6188 5000,7000 Z"/>
        <path fill="none" stroke="rgb(191,129,158)" d="M 5000,7000 L 5289,6188 4711,6188 5000,7000 Z"/>
        <path fill="rgb(161,70,126)" stroke="none" d="M 6415,6415 L 6044,5636 5636,6044 6415,6415 Z"/>
        <path fill="none" stroke="rgb(191,129,158)" d="M 6415,6415 L 6044,5636 5636,6044 6415,6415 Z"/>
        <path fill="rgb(161,70,126)" stroke="none" d="M 7000,5000 L 6188,4711 6188,5289 7000,5000 Z"/>
        <path fill="none" stroke="rgb(191,129,158)" d="M 7000,5000 L 6188,4711 6188,5289 7000,5000 Z"/>
        <path fill="rgb(161,70,126)" stroke="none" d="M 6415,3585 L 5636,3956 6044,4364 6415,3585 Z"/>
        <path fill="none" stroke="rgb(191,129,158)" d="M 6415,3585 L 5636,3956 6044,4364 6415,3585 Z"/>
        <path fill="rgb(161,70,126)" stroke="none" d="M 5000,3000 L 4711,3812 5289,3812 5000,3000 Z"/>
        <path fill="none" stroke="rgb(191,129,158)" d="M 5000,3000 L 4711,3812 5289,3812 5000,3000 Z"/>
        <path fill="rgb(161,70,126)" stroke="none" d="M 3585,3585 L 3956,4364 4364,3956 3585,3585 Z"/>
        <path fill="none" stroke="rgb(191,129,158)" d="M 3585,3585 L 3956,4364 4364,3956 3585,3585 Z"/>
        <path fill="rgb(161,70,126)" stroke="none" d="M 6001,5001 C 6001,5176 5955,5349 5867,5501 5779,5653 5653,5779 5501,5867 5349,5955 5176,6001 5001,6001 4825,6001 4652,5955 4500,5867 4348,5779 4222,5653 4134,5501 4046,5349 4000,5176 4000,5001 4000,4825 4046,4652 4134,4500 4222,4348 4348,4222 4500,4134 4652,4046 4825,4000 5001,4000 5176,4000 5349,4046 5501,4134 5653,4222 5779,4348 5867,4500 5955,4652 6001,4825 6001,5000 L 6001,5001 Z"/>
        <path fill="none" stroke="rgb(191,129,158)" d="M 6001,5001 C 6001,5176 5955,5349 5867,5501 5779,5653 5653,5779 5501,5867 5349,5955 5176,6001 5001,6001 4825,6001 4652,5955 4500,5867 4348,5779 4222,5653 4134,5501 4046,5349 4000,5176 4000,5001 4000,4825 4046,4652 4134,4500 4222,4348 4348,4222 4500,4134 4652,4046 4825,4000 5001,4000 5176,4000 5349,4046 5501,4134 5653,4222 5779,4348 5867,4500 5955,4652 6001,4825 6001,5000 L 6001,5001 Z"/>
       </g>
      </g>
     </g>
    </g>
   </g>
  </g>
 </g>
</svg>