<?xml version="1.0" encoding="UTF-8"?>
<!DOCTYPE svg PUBLIC "-//W3C//DTD SVG 1.1//EN" "http://www.w3.org/Graphics/SVG/1.1/DTD/svg11.dtd">
<svg version="1.2" width="100mm" height="100mm" viewBox="0 0 10000 10000" preserveAspectRatio="xMidYMid" fill-rule="evenodd" stroke-width="28.222" stroke-linejoin="round" xmlns="http://www.w3.org/2000/svg" xmlns:ooo="http://xml.openoffice.org/svg/export" xmlns:xlink="http://www.w3.org/1999/xlink" xmlns:presentation="http://sun.com/xmlns/staroffice/presentation" xmlns:smil="http://www.w3.org/2001/SMIL20/" xmlns:anim="urn:oasis:names:tc:opendocument:xmlns:animation:1.0" xml:space="preserve">
 <defs class="ClipPathGroup">
  <clipPath id="presentation_clip_path" clipPathUnits="userSpaceOnUse">
   <rect x="0" y="0" width="10000" height="10000"/>
  </clipPath>
  <clipPath id="presentation_clip_path_shrink" clipPathUnits="userSpaceOnUse">
   <rect x="10" y="10" width="9980" height="9980"/>
  </clipPath>
 </defs>
 <defs class="TextShapeIndex">
  <g ooo:slide="id1" ooo:id-list="id3 id4 id5 id6 id7 id8"/>
 </defs>
 <defs class="EmbeddedBulletChars">
  <g id="bullet-char-template-57356" transform="scale(0.00048828125,-0.00048828125)">
   <path d="M 580,1141 L 1163,571 580,0 -4,571 580,1141 Z"/>
  </g>
  <g id="bullet-char-template-57354" transform="scale(0.00048828125,-0.00048828125)">
   <path d="M 8,1128 L 1137,1128 1137,0 8,0 8,1128 Z"/>
  </g>
  <g id="bullet-char-template-10146" transform="scale(0.00048828125,-0.00048828125)">
   <path d="M 174,0 L 602,739 174,1481 1456,739 174,0 Z M 1358,739 L 309,1346 659,739 1358,739 Z"/>
  </g>
  <g id="bullet-char-template-10132" transform="scale(0.00048828125,-0.00048828125)">
   <path d="M 2015,739 L 1276,0 717,0 1260,543 174,543 174,936 1260,936 717,1481 1274,1481 2015,739 Z"/>
  </g>
  <g id="bullet-char-template-10007" transform="scale(0.00048828125,-0.00048828125)">
   <path d="M 0,-2 C -7,14 -16,27 -25,37 L 356,567 C 262,823 215,952 215,954 215,979 228,992 255,992 264,992 276,990 289,987 310,991 331,999 354,1012 L 381,999 492,748 772,1049 836,1024 860,1049 C 881,1039 901,1025 922,1006 886,937 835,863 770,784 769,783 710,716 594,584 L 774,223 C 774,196 753,168 711,139 L 727,119 C 717,90 699,76 672,76 641,76 570,178 457,381 L 164,-76 C 142,-110 111,-127 72,-127 30,-127 9,-110 8,-76 1,-67 -2,-52 -2,-32 -2,-23 -1,-13 0,-2 Z"/>
  </g>
  <g id="bullet-char-template-10004" transform="scale(0.00048828125,-0.00048828125)">
   <path d="M 285,-33 C 182,-33 111,30 74,156 52,228 41,333 41,471 41,549 55,616 82,672 116,743 169,778 240,778 293,778 328,747 346,684 L 369,508 C 377,444 397,411 428,410 L 1163,1116 C 1174,1127 1196,1133 1229,1133 1271,1133 1292,1118 1292,1087 L 1292,965 C 1292,929 1282,901 1262,881 L 442,47 C 390,-6 338,-33 285,-33 Z"/>
  </g>
  <g id="bullet-char-template-9679" transform="scale(0.00048828125,-0.00048828125)">
   <path d="M 813,0 C 632,0 489,54 383,161 276,268 223,411 223,592 223,773 276,916 383,1023 489,1130 632,1184 813,1184 992,1184 1136,1130 1245,1023 1353,916 1407,772 1407,592 1407,412 1353,268 1245,161 1136,54 992,0 813,0 Z"/>
  </g>
  <g id="bullet-char-template-8226" transform="scale(0.00048828125,-0.00048828125)">
   <path d="M 346,457 C 273,457 209,483 155,535 101,586 74,649 74,723 74,796 101,859 155,911 209,963 273,989 346,989 419,989 480,963 531,910 582,859 608,796 608,723 608,648 583,586 532,535 482,483 420,457 346,457 Z"/>
  </g>
  <g id="bullet-char-template-8211" transform="scale(0.00048828125,-0.00048828125)">
   <path d="M -4,459 L 1135,459 1135,606 -4,606 -4,459 Z"/>
  </g>
  <g id="bullet-char-template-61548" transform="scale(0.00048828125,-0.00048828125)">
   <path d="M 173,740 C 173,903 231,1043 346,1159 462,1274 601,1332 765,1332 928,1332 1067,1274 1183,1159 1299,1043 1357,903 1357,740 1357,577 1299,437 1183,322 1067,206 928,148 765,148 601,148 462,206 346,322 231,437 173,577 173,740 Z"/>
  </g>
 </defs>
 <g>
  <g id="id2" class="Master_Slide">
   <g id="bg-id2" class="Background"/>
   <g id="bo-id2" class="BackgroundObjects"/>
  </g>
 </g>
 <g class="SlideGroup">
  <g>
   <g id="container-id1">
    <g id="id1" class="Slide" clip-path="url(#presentation_clip_path)">
     <g class="Page">
      <g class="com.sun.star.drawing.CustomShape">
       <g id="id3">
        <rect class="BoundingBox" stroke="none" fill="none" x="1958" y="1859" width="6185" height="6284"/>
        <path fill="rgb(114,159,207)" stroke="none" d="M 8001,5001 C 8001,5527 7865,6045 7606,6501 7347,6957 6974,7336 6526,7599 6077,7862 5568,8001 5051,8001 4533,8001 4024,7862 3575,7599 3127,7336 2754,6957 2495,6501 2236,6045 2100,5527 2100,5001 2100,4474 2236,3956 2495,3500 2754,3044 3127,2665 3575,2402 4024,2139 4533,2000 5050,2000 5568,2000 6077,2139 6526,2402 6974,2665 7347,3044 7606,3500 7865,3956 8001,4474 8001,5000 L 8001,5001 Z"/>
        <path fill="none" stroke="rgb(52,101,164)" stroke-width="282" stroke-linejoin="round" d="M 8001,5001 C 8001,5527 7865,6045 7606,6501 7347,6957 6974,7336 6526,7599 6077,7862 5568,8001 5051,8001 4533,8001 4024,7862 3575,7599 3127,7336 2754,6957 2495,6501 2236,6045 2100,5527 2100,5001 2100,4474 2236,3956 2495,3500 2754,3044 3127,2665 3575,2402 4024,2139 4533,2000 5050,2000 5568,2000 6077,2139 6526,2402 6974,2665 7347,3044 7606,3500 7865,3956 8001,4474 8001,5000 L 8001,5001 Z"/>
       </g>
      </g>
      <g class="com.sun.star.drawing.EllipseShape">
       <g id="id4">
        <rect class="BoundingBox" stroke="none" fill="none" x="823" y="1823" width="8355" height="6358"/>
        <path fill="none" stroke="rgb(42,96,153)" stroke-width="353" stroke-linejoin="round" stroke-linecap="round" d="M 3390,7548 C 2751,7825 2197,7981 1783,8001 1365,8021 1104,7902 1025,7656 946,7410 1052,7045 1333,6599 1613,6153 2058,5641 2623,5115 3188,4588 3852,4066 4550,3600 5248,3134 5954,2741 6598,2461 7241,2180 7800,2022 8217,2002 8635,1983 8896,2102 8975,2348 9054,2594 8948,2958 8667,3404 8492,3683 8251,3989 7955,4310"/>
       </g>
      </g>
      <g class="com.sun.star.drawing.EllipseShape">
       <g id="id5">
        <rect class="BoundingBox" stroke="none" fill="none" x="112" y="1413" width="9749" height="7199"/>
        <path fill="none" stroke="rgb(42,96,153)" stroke-width="353" stroke-linejoin="round" stroke-linecap="round" d="M 3457,7582 C 3315,7654 3175,7723 3038,7787 2288,8138 1641,8355 1162,8416 684,8477 390,8380 311,8134 232,7888 370,7502 712,7015 1054,6528 1588,5957 2259,5359 2930,4761 3716,4158 4536,3610 5357,3063 6184,2589 6934,2238 7684,1886 8331,1669 8810,1608 9289,1547 9582,1645 9661,1891 9740,2137 9602,2522 9260,3010 8965,3430 8526,3914 7977,4425"/>
       </g>
      </g>
      <g class="com.sun.star.drawing.CustomShape">
       <g id="id6">
        <rect class="BoundingBox" stroke="none" fill="none" x="318" y="4918" width="4566" height="4566"/>
        <path fill="rgb(255,0,0)" stroke="none" d="M 4601,7201 C 4601,7552 4509,7897 4333,8201 4157,8505 3905,8757 3601,8933 3297,9109 2952,9201 2601,9201 2249,9201 1904,9109 1600,8933 1296,8757 1044,8505 868,8201 692,7897 600,7552 600,7201 600,6849 692,6504 868,6200 1044,5896 1296,5644 1600,5468 1904,5292 2249,5200 2600,5200 2952,5200 3297,5292 3601,5468 3905,5644 4157,5896 4333,6200 4509,6504 4601,6849 4601,7200 L 4601,7201 Z"/>
        <path fill="none" stroke="rgb(0,0,0)" stroke-width="564" stroke-linejoin="round" d="M 4601,7201 C 4601,7552 4509,7897 4333,8201 4157,8505 3905,8757 3601,8933 3297,9109 2952,9201 2601,9201 2249,9201 1904,9109 1600,8933 1296,8757 1044,8505 868,8201 692,7897 600,7552 600,7201 600,6849 692,6504 868,6200 1044,5896 1296,5644 1600,5468 1904,5292 2249,5200 2600,5200 2952,5200 3297,5292 3601,5468 3905,5644 4157,5896 4333,6200 4509,6504 4601,6849 4601,7200 L 4601,7201 Z"/>
       </g>
      </g>
      <g class="com.sun.star.drawing.LineShape">
       <g id="id7">
        <rect class="BoundingBox" stroke="none" fill="none" x="2335" y="4835" width="531" height="4831"/>
        <path fill="none" stroke="rgb(0,0,0)" stroke-width="529" stroke-linejoin="round" d="M 2600,5100 L 2600,9400"/>
       </g>
      </g>
      <g class="com.sun.star.drawing.LineShape">
       <g id="id8">
        <rect class="BoundingBox" stroke="none" fill="none" x="235" y="6935" width="4831" height="531"/>
        <path fill="none" stroke="rgb(0,0,0)" stroke-width="529" stroke-linejoin="round" d="M 4800,7200 L 500,7200"/>
       </g>
      </g>
     </g>
    </g>
   </g>
  </g>
 </g>
</svg>