<?xml version="1.0" encoding="UTF-8"?>
<!DOCTYPE svg PUBLIC "-//W3C//DTD SVG 1.1//EN" "http://www.w3.org/Graphics/SVG/1.1/DTD/svg11.dtd">
<svg version="1.2" width="100mm" height="100mm" viewBox="0 0 10000 10000" preserveAspectRatio="xMidYMid" fill-rule="evenodd" stroke-width="28.222" stroke-linejoin="round" xmlns="http://www.w3.org/2000/svg" xmlns:ooo="http://xml.openoffice.org/svg/export" xmlns:xlink="http://www.w3.org/1999/xlink" xmlns:presentation="http://sun.com/xmlns/staroffice/presentation" xmlns:smil="http://www.w3.org/2001/SMIL20/" xmlns:anim="urn:oasis:names:tc:opendocument:xmlns:animation:1.0" xml:space="preserve">
 <defs class="ClipPathGroup">
  <clipPath id="presentation_clip_path" clipPathUnits="userSpaceOnUse">
   <rect x="0" y="0" width="10000" height="10000"/>
  </clipPath>
  <clipPath id="presentation_clip_path_shrink" clipPathUnits="userSpaceOnUse">
   <rect x="10" y="10" width="9980" height="9980"/>
  </clipPath>
 </defs>
 <defs class="TextShapeIndex">
  <g ooo:slide="id1" ooo:id-list="id3 id4 id5 id6 id7 id8 id9 id10 id11 id12 id13 id14"/>
 </defs>
 <defs class="EmbeddedBulletChars">
  <g id="bullet-char-template-57356" transform="scale(0.00048828125,-0.00048828125)">
   <path d="M 580,1141 L 1163,571 580,0 -4,571 580,1141 Z"/>
  </g>
  <g id="bullet-char-template-57354" transform="scale(0.00048828125,-0.00048828125)">
   <path d="M 8,1128 L 1137,1128 1137,0 8,0 8,1128 Z"/>
  </g>
  <g id="bullet-char-template-10146" transform="scale(0.00048828125,-0.00048828125)">
   <path d="M 174,0 L 602,739 174,1481 1456,739 174,0 Z M 1358,739 L 309,1346 659,739 1358,739 Z"/>
  </g>
  <g id="bullet-char-template-10132" transform="scale(0.00048828125,-0.00048828125)">
   <path d="M 2015,739 L 1276,0 717,0 1260,543 174,543 174,936 1260,936 717,1481 1274,1481 2015,739 Z"/>
  </g>
  <g id="bullet-char-template-10007" transform="scale(0.00048828125,-0.00048828125)">
   <path d="M 0,-2 C -7,14 -16,27 -25,37 L 356,567 C 262,823 215,952 215,954 215,979 228,992 255,992 264,992 276,990 289,987 310,991 331,999 354,1012 L 381,999 492,748 772,1049 836,1024 860,1049 C 881,1039 901,1025 922,1006 886,937 835,863 770,784 769,783 710,716 594,584 L 774,223 C 774,196 753,168 711,139 L 727,119 C 717,90 699,76 672,76 641,76 570,178 457,381 L 164,-76 C 142,-110 111,-127 72,-127 30,-127 9,-110 8,-76 1,-67 -2,-52 -2,-32 -2,-23 -1,-13 0,-2 Z"/>
  </g>
  <g id="bullet-char-template-10004" transform="scale(0.00048828125,-0.00048828125)">
   <path d="M 285,-33 C 182,-33 111,30 74,156 52,228 41,333 41,471 41,549 55,616 82,672 116,743 169,778 240,778 293,778 328,747 346,684 L 369,508 C 377,444 397,411 428,410 L 1163,1116 C 1174,1127 1196,1133 1229,1133 1271,1133 1292,1118 1292,1087 L 1292,965 C 1292,929 1282,901 1262,881 L 442,47 C 390,-6 338,-33 285,-33 Z"/>
  </g>
  <g id="bullet-char-template-9679" transform="scale(0.00048828125,-0.00048828125)">
   <path d="M 813,0 C 632,0 489,54 383,161 276,268 223,411 223,592 223,773 276,916 383,1023 489,1130 632,1184 813,1184 992,1184 1136,1130 1245,1023 1353,916 1407,772 1407,592 1407,412 1353,268 1245,161 1136,54 992,0 813,0 Z"/>
  </g>
  <g id="bullet-char-template-8226" transform="scale(0.00048828125,-0.00048828125)">
   <path d="M 346,457 C 273,457 209,483 155,535 101,586 74,649 74,723 74,796 101,859 155,911 209,963 273,989 346,989 419,989 480,963 531,910 582,859 608,796 608,723 608,648 583,586 532,535 482,483 420,457 346,457 Z"/>
  </g>
  <g id="bullet-char-template-8211" transform="scale(0.00048828125,-0.00048828125)">
   <path d="M -4,459 L 1135,459 1135,606 -4,606 -4,459 Z"/>
  </g>
  <g id="bullet-char-template-61548" transform="scale(0.00048828125,-0.00048828125)">
   <path d="M 173,740 C 173,903 231,1043 346,1159 462,1274 601,1332 765,1332 928,1332 1067,1274 1183,1159 1299,1043 1357,903 1357,740 1357,577 1299,437 1183,322 1067,206 928,148 765,148 601,148 462,206 346,322 231,437 173,577 173,740 Z"/>
  </g>
 </defs>
 <g>
  <g id="id2" class="Master_Slide">
   <g id="bg-id2" class="Background"/>
   <g id="bo-id2" class="BackgroundObjects"/>
  </g>
 </g>
 <g class="SlideGroup">
  <g>
   <g id="container-id1">
    <g id="id1" class="Slide" clip-path="url(#presentation_clip_path)">
     <g class="Page">
      <g class="com.sun.star.drawing.CustomShape">
       <g id="id3">
        <rect class="BoundingBox" stroke="none" fill="none" x="1118" y="1064" width="7816" height="7785"/>
        <path fill="none" stroke="rgb(206,0,172)" stroke-width="847" stroke-linejoin="round" d="M 7054,2164 C 7551,2526 7946,3009 8198,3567 8451,4125 8552,4737 8492,5342 8433,5947 8214,6523 7858,7013 7502,7503 7021,7890 6464,8134 5907,8377 5294,8470 4685,8402 4077,8334 3495,8109 2998,7747 2500,7386 2106,6902 1853,6345 1601,5787 1499,5175 1559,4570 1619,3965 1838,3388 2194,2898 2550,2408 3030,2022 3587,1778 4144,1534 4758,1442 5366,1510 5975,1577 6557,1803 7054,2164 L 7054,2164 Z"/>
       </g>
      </g>
      <g class="com.sun.star.drawing.CustomShape">
       <g id="id4">
        <rect class="BoundingBox" stroke="none" fill="none" x="360" y="1137" width="4011" height="3900"/>
        <path fill="none" stroke="rgb(206,0,172)" stroke-width="811" stroke-linejoin="round" d="M 3376,3821 L 2789,4630 766,3161 1942,1543 3964,3012 3376,3821 Z"/>
       </g>
      </g>
      <g class="com.sun.star.drawing.CustomShape">
       <g id="id5">
        <rect class="BoundingBox" stroke="none" fill="none" x="5621" y="4958" width="4011" height="3900"/>
        <path fill="none" stroke="rgb(206,0,172)" stroke-width="811" stroke-linejoin="round" d="M 8637,7642 L 8050,8451 6027,6982 7203,5364 9225,6833 8637,7642 Z"/>
       </g>
      </g>
      <g class="com.sun.star.drawing.LineShape">
       <g id="id6">
        <rect class="BoundingBox" stroke="none" fill="none" x="2873" y="3339" width="4166" height="3259"/>
        <path fill="none" stroke="rgb(206,0,172)" stroke-width="847" stroke-linejoin="round" d="M 3297,3763 L 6614,6173"/>
       </g>
      </g>
      <g class="com.sun.star.drawing.CustomShape">
       <g id="id7">
        <rect class="BoundingBox" stroke="none" fill="none" x="1324" y="2100" width="2084" height="1973"/>
        <path fill="rgb(255,166,166)" stroke="none" d="M 3053,3586 L 2700,4071 1325,3072 2030,2101 3406,3100 3053,3586 Z"/>
        <path fill="none" stroke="rgb(255,0,0)" d="M 3053,3586 L 2700,4071 1325,3072 2030,2101 3406,3100 3053,3586 Z"/>
       </g>
      </g>
      <g class="com.sun.star.drawing.CustomShape">
       <g id="id8">
        <rect class="BoundingBox" stroke="none" fill="none" x="6584" y="5919" width="2084" height="1973"/>
        <path fill="rgb(255,166,166)" stroke="none" d="M 8313,7405 L 7960,7890 6585,6891 7290,5920 8666,6919 8313,7405 Z"/>
        <path fill="none" stroke="rgb(255,0,0)" d="M 8313,7405 L 7960,7890 6585,6891 7290,5920 8666,6919 8313,7405 Z"/>
       </g>
      </g>
      <g class="com.sun.star.drawing.CustomShape">
       <g id="id9">
        <rect class="BoundingBox" stroke="none" fill="none" x="3662" y="3661" width="2673" height="2673"/>
        <path fill="rgb(255,166,166)" stroke="none" d="M 5586,4187 C 5728,4291 5840,4430 5912,4590 5983,4750 6011,4927 5993,5101 5974,5276 5910,5443 5807,5585 5704,5727 5565,5839 5405,5911 5244,5982 5068,6010 4893,5992 4718,5974 4552,5910 4410,5806 4268,5703 4155,5564 4084,5404 4012,5243 3984,5067 4003,4892 4021,4718 4085,4551 4188,4409 4292,4267 4430,4154 4591,4083 4751,4011 4928,3984 5102,4002 5277,4020 5444,4084 5586,4187 L 5586,4187 Z"/>
        <path fill="none" stroke="rgb(206,0,172)" stroke-width="670" stroke-linejoin="round" d="M 5586,4187 C 5728,4291 5840,4430 5912,4590 5983,4750 6011,4927 5993,5101 5974,5276 5910,5443 5807,5585 5704,5727 5565,5839 5405,5911 5244,5982 5068,6010 4893,5992 4718,5974 4552,5910 4410,5806 4268,5703 4155,5564 4084,5404 4012,5243 3984,5067 4003,4892 4021,4718 4085,4551 4188,4409 4292,4267 4430,4154 4591,4083 4751,4011 4928,3984 5102,4002 5277,4020 5444,4084 5586,4187 L 5586,4187 Z"/>
       </g>
      </g>
      <g class="com.sun.star.drawing.LineShape">
       <g id="id10">
        <rect class="BoundingBox" stroke="none" fill="none" x="1798" y="6526" width="2223" height="2688"/>
        <path fill="none" stroke="rgb(255,0,0)" stroke-width="988" stroke-linejoin="round" d="M 2292,8719 L 3526,7020"/>
       </g>
      </g>
      <g class="com.sun.star.drawing.LineShape">
       <g id="id11">
        <rect class="BoundingBox" stroke="none" fill="none" x="5971" y="782" width="2223" height="2688"/>
        <path fill="none" stroke="rgb(206,0,172)" stroke-width="988" stroke-linejoin="round" d="M 6465,2975 L 7699,1276"/>
       </g>
      </g>
      <g class="com.sun.star.drawing.CustomShape">
       <g id="id12">
        <rect class="BoundingBox" stroke="none" fill="none" x="318" y="4918" width="4566" height="4566"/>
        <path fill="rgb(255,0,0)" stroke="none" d="M 4601,7201 C 4601,7552 4509,7897 4333,8201 4157,8505 3905,8757 3601,8933 3297,9109 2952,9201 2601,9201 2249,9201 1904,9109 1600,8933 1296,8757 1044,8505 868,8201 692,7897 600,7552 600,7201 600,6849 692,6504 868,6200 1044,5896 1296,5644 1600,5468 1904,5292 2249,5200 2600,5200 2952,5200 3297,5292 3601,5468 3905,5644 4157,5896 4333,6200 4509,6504 4601,6849 4601,7200 L 4601,7201 Z"/>
        <path fill="none" stroke="rgb(0,0,0)" stroke-width="564" stroke-linejoin="round" d="M 4601,7201 C 4601,7552 4509,7897 4333,8201 4157,8505 3905,8757 3601,8933 3297,9109 2952,9201 2601,9201 2249,9201 1904,9109 1600,8933 1296,8757 1044,8505 868,8201 692,7897 600,7552 600,7201 600,6849 692,6504 868,6200 1044,5896 1296,5644 1600,5468 1904,5292 2249,5200 2600,5200 2952,5200 3297,5292 3601,5468 3905,5644 4157,5896 4333,6200 4509,6504 4601,6849 4601,7200 L 4601,7201 Z"/>
       </g>
      </g>
      <g class="com.sun.star.drawing.LineShape">
       <g id="id13">
        <rect class="BoundingBox" stroke="none" fill="none" x="2335" y="4835" width="531" height="4831"/>
        <path fill="none" stroke="rgb(0,0,0)" stroke-width="529" stroke-linejoin="round" d="M 2600,5100 L 2600,9400"/>
       </g>
      </g>
      <g class="com.sun.star.drawing.LineShape">
       <g id="id14">
        <rect class="BoundingBox" stroke="none" fill="none" x="235" y="6935" width="4831" height="531"/>
        <path fill="none" stroke="rgb(0,0,0)" stroke-width="529" stroke-linejoin="round" d="M 4800,7200 L 500,7200"/>
       </g>
      </g>
     </g>
    </g>
   </g>
  </g>
 </g>
</svg>